<?xml version="1.0" standalone="no"?>
<!DOCTYPE svg PUBLIC "-//W3C//DTD SVG 20010904//EN"
 "http://www.w3.org/TR/2001/REC-SVG-20010904/DTD/svg10.dtd">
<svg version="1.0" xmlns="http://www.w3.org/2000/svg"
 width="512.000000pt" height="512.000000pt"  viewBox="0 0 512.000000 512.000000"
 preserveAspectRatio="xMidYMid meet">

<g transform="translate(0.000000,512.000000) scale(0.100000,-0.100000)"
fill="#ffffff" stroke="none" >
<path d="M0 2560 l0 -2560 2560 0 2560 0 0 2560 0 2560 -2560 0 -2560 0 0
-2560z m2525 1924 c33 -59 65 -114 70 -123 6 -9 39 -68 73 -133 34 -64 68
-120 75 -126 8 -7 39 1 97 24 47 18 93 33 103 34 11 0 40 -34 83 -97 100 -150
199 -292 211 -304 8 -8 14 -5 22 9 6 12 38 58 72 104 33 46 82 116 110 156 27
39 52 72 56 72 3 0 51 -44 107 -97 274 -263 346 -322 346 -282 0 9 58 148 65
157 2 2 453 -234 492 -258 41 -26 151 -262 212 -454 64 -200 91 -387 91 -631
0 -402 -80 -720 -262 -1044 -39 -69 -80 -144 -92 -166 -71 -131 -403 -484
-542 -576 -101 -68 -275 -169 -384 -224 -269 -135 -615 -215 -934 -215 -255 0
-417 23 -646 91 -213 64 -317 112 -589 272 -158 93 -439 350 -548 502 -105
146 -139 199 -246 385 -42 74 -141 341 -152 411 -3 24 -13 76 -20 114 -42 210
-56 479 -35 655 22 187 61 379 99 492 34 101 125 304 150 337 l18 23 97 -16
c53 -9 103 -13 110 -9 16 9 45 35 211 186 66 60 139 130 162 155 38 41 44 44
62 31 11 -8 74 -56 141 -107 66 -51 127 -95 135 -98 9 -4 74 55 181 166 92 94
175 175 185 180 11 7 35 3 75 -10 31 -11 62 -20 68 -20 6 0 26 22 44 48 112
159 184 259 197 275 38 44 126 168 137 191 6 14 16 26 22 26 6 0 38 -48 71
-106z"/>
<path d="M1840 2240 l0 -760 170 0 170 0 0 760 0 760 -170 0 -170 0 0 -760z"/>
<path d="M2948 2423 c-3 -562 -4 -579 -24 -613 -31 -54 -77 -80 -141 -80 -99
0 -159 46 -184 143 -7 26 -18 47 -25 47 -18 0 -275 -68 -281 -74 -4 -3 0 -32
7 -63 39 -177 141 -283 310 -324 85 -20 263 -18 330 5 92 31 183 82 221 123
118 126 129 203 129 901 l0 512 -170 0 -169 0 -3 -577z"/>
</g>
</svg>
